<svg width="70" height="51" viewBox="0 0 70 51" fill="none" xmlns="http://www.w3.org/2000/svg">
<rect x="0.0324707" y="13.2534" width="69.2937" height="37.2324" rx="5.47459" fill="#20223B"/>
<path d="M26.837 39.9046C25.6855 39.9046 24.8788 39.7253 24.4169 39.3668C23.9549 39.0014 23.7239 38.4842 23.7239 37.8154C23.7239 37.5879 23.7343 37.288 23.755 36.9156C23.7825 36.5433 23.8101 36.2331 23.8377 35.9848L24.6341 36.0469C24.6341 36.0952 24.6272 36.1813 24.6134 36.3054C24.5789 36.8708 24.5617 37.2811 24.5617 37.5362C24.5617 37.8258 24.6341 38.0533 24.7788 38.2188C24.9305 38.3774 25.1925 38.4946 25.5649 38.5704C25.9372 38.6394 26.4715 38.6738 27.1679 38.6738C27.7678 38.6738 28.378 38.6463 28.9985 38.5911C29.6191 38.5359 30.1534 38.4532 30.6016 38.3429L30.4982 35.6539L31.5014 35.5711V37.8051C31.5014 38.1705 31.4428 38.4773 31.3256 38.7256C31.2083 38.9669 31.0049 39.1668 30.7154 39.3254C29.9983 39.7115 28.7055 39.9046 26.837 39.9046ZM27.5299 34.992V36.0779H26.2681V34.992H27.5299ZM28.7917 34.992V36.0779H27.5299V34.992H28.7917ZM32.7925 33.089L33.7957 32.9752V39.8012L32.8959 39.8839L32.7925 33.089ZM33.0132 40.9595C33.5786 40.8423 34.0681 40.6941 34.4818 40.5148C34.8955 40.3424 35.2092 40.1597 35.423 39.9666C35.6436 39.7805 35.7574 39.6116 35.7643 39.4599L35.7746 39.0151C35.7746 38.9807 35.8125 38.9048 35.8884 38.7876C35.9642 38.6635 36.0504 38.5532 36.1469 38.4567C36.2435 38.3601 36.3262 38.3119 36.3952 38.3119C36.4986 38.3119 36.5503 38.436 36.5503 38.6842C36.5503 39.2151 36.4882 39.6874 36.3641 40.1011C36.2469 40.5148 35.9435 40.9147 35.454 41.3008C34.9645 41.6869 34.2198 41.9696 33.2201 42.1489L33.0132 40.9595ZM35.4437 35.9021L36.4469 35.8194C36.5158 37.0949 36.5503 38.0499 36.5503 38.6842C36.5503 39.0634 36.5089 39.3702 36.4262 39.6047C36.3503 39.8391 36.2573 40.0046 36.1469 40.1011C36.0366 40.2045 35.9332 40.2562 35.8367 40.2562C35.7884 40.2562 35.7505 40.2459 35.7229 40.2252C35.6953 40.2045 35.6815 40.1769 35.6815 40.1425L35.4437 35.9021ZM40.1981 39.8012C39.6947 39.8012 39.2811 39.7667 38.957 39.6977C38.6398 39.6219 38.3813 39.4668 38.1813 39.2323C37.9883 38.991 37.8848 38.629 37.871 38.1464L37.7366 33.089L38.7398 32.9752V38.0119C38.7398 38.1636 38.7777 38.2808 38.8536 38.3636C38.9363 38.4394 39.0811 38.4946 39.2879 38.5291C39.4948 38.5566 39.7982 38.5704 40.1981 38.5704L40.3015 38.6738V39.6977L40.1981 39.8012ZM40.0996 38.5704C40.3685 38.5704 40.6753 38.5532 41.02 38.5187C41.3648 38.4842 41.6061 38.4291 41.744 38.3532L41.6302 35.4781L42.6541 35.4264V37.9395C42.6541 38.6221 42.4335 39.1048 41.9922 39.3875C41.5578 39.6633 40.927 39.8012 40.0996 39.8012V38.5704ZM41.3303 40.6286H42.5611V41.5904H41.3303V40.6286ZM40.8235 41.5904H41.8371V42.5419H40.8235V41.5904ZM40.0996 40.6286H41.3303V41.5904H40.0996V40.6286ZM43.9432 34.3611L44.9464 34.2473V39.8012L44.0466 39.8839L43.9432 34.3611ZM46.0531 33.0062C45.5084 33.151 44.9568 33.2234 44.3983 33.2234C43.9639 33.2234 43.5605 33.1821 43.1882 33.0993C43.0296 33.0648 42.9021 33.0304 42.8056 32.9959L43.1469 32.1478C43.5261 32.2719 43.9432 32.334 44.3983 32.334C44.681 32.334 44.9499 32.3168 45.205 32.2823C45.4601 32.2409 45.76 32.1857 46.1048 32.1168L46.0531 33.0062ZM43.3744 32.758L43.5916 33.7923L43.0227 33.9577L42.8056 32.9959L43.3744 32.758Z" fill="white"/>
<circle cx="35.1964" cy="11.7021" r="10.8595" fill="url(#paint0_linear_221_79)"/>
<path d="M31.5036 4.69413C30.8659 4.83748 30.2282 5.31697 29.9662 5.86565C29.8575 6.08315 29.4868 7.33377 29.4868 7.47217C29.4868 7.49195 29.6697 7.32388 29.897 7.0965C30.3469 6.64173 30.9104 6.20179 31.3899 5.93486C32.072 5.54929 32.9964 5.2181 33.5797 5.13901C33.723 5.11924 33.8268 5.08958 33.8021 5.06981C33.7576 5.02532 32.8827 4.79299 32.4032 4.69413C32.0176 4.61504 31.8743 4.61504 31.5036 4.69413Z" fill="#20223B"/>
<path d="M34.0098 5.66294C33.1546 5.78158 32.1907 6.14737 31.4542 6.62191C29.9861 7.57594 28.9678 9.09843 28.6712 10.8038C28.5625 11.4118 28.5773 12.4153 28.6959 13.0134C28.9579 14.3184 29.4868 15.307 30.4211 16.2462C31.4394 17.2596 32.5911 17.8379 34.0098 18.0455C35.2555 18.2284 36.4962 18.0257 37.6677 17.4573C39.3929 16.6169 40.5545 15.1785 41.034 13.3001C41.1576 12.8107 41.1724 12.6723 41.1724 11.8913C41.1724 10.957 41.1378 10.7198 40.8956 9.96348C40.3123 8.13451 38.864 6.63674 37.0498 5.98919C36.3578 5.73709 35.8931 5.658 35.0726 5.63823C34.6524 5.62834 34.1729 5.63823 34.0098 5.66294ZM33.9258 7.48696C34.2817 7.67975 34.514 7.92196 34.7117 8.2927C34.8353 8.52997 34.8501 8.60411 34.8501 9.049C34.8501 9.47905 34.8353 9.57791 34.7216 9.81518C34.1878 10.9373 32.69 11.1943 31.8101 10.3144C30.8511 9.35547 31.2713 7.77367 32.601 7.33867C32.6702 7.31395 32.9273 7.30407 33.1695 7.30901C33.5649 7.32384 33.649 7.34361 33.9258 7.48696ZM38.4092 8.33224C38.775 8.50525 39.0864 8.82655 39.2644 9.21212C39.3781 9.45433 39.3978 9.55814 39.3978 9.93876C39.3929 10.3243 39.3781 10.4232 39.2545 10.6654C38.9925 11.2141 38.4833 11.5898 37.8902 11.6837C37.5491 11.7331 37.0548 11.654 36.7631 11.5008C36.4567 11.3426 36.1255 10.9917 35.9722 10.6654C35.8585 10.4232 35.8388 10.3194 35.8388 9.93876C35.8388 9.55814 35.8585 9.45433 35.9722 9.21212C36.2144 8.69309 36.7088 8.2927 37.2426 8.179C37.5738 8.1098 38.078 8.17406 38.4092 8.33224ZM35.2209 11.2091C35.6608 11.4316 35.7893 12.0248 35.4829 12.3856C35.3099 12.5932 35.1171 12.6822 34.8501 12.6822C34.4596 12.6822 34.1878 12.4696 34.079 12.0791C33.9604 11.6244 34.3657 11.1103 34.8501 11.1004C34.9342 11.1004 35.1022 11.1498 35.2209 11.2091ZM32.8877 12.1681C33.4166 12.4054 33.7478 12.7811 33.906 13.3199C34.0543 13.8241 33.9703 14.3184 33.6539 14.7929C33.2733 15.3663 32.5466 15.6777 31.8892 15.5492C31.2515 15.4256 30.7968 15.0796 30.5348 14.5211C30.4211 14.2788 30.4013 14.175 30.4013 13.7697C30.4013 13.3792 30.4211 13.2606 30.5199 13.0628C30.9599 12.1632 32.0078 11.7677 32.8877 12.1681ZM37.4502 13.0381C37.8259 13.2111 38.0879 13.4583 38.2906 13.829C38.4537 14.1256 38.4586 14.1602 38.4586 14.6595C38.4586 15.1093 38.4389 15.2081 38.34 15.4009C37.9693 16.1078 37.3365 16.4785 36.5852 16.4291C35.7745 16.3747 35.1517 15.8508 34.9441 15.0549C34.7216 14.1899 35.1962 13.3347 36.1008 12.9738C36.4468 12.8354 37.0795 12.8651 37.4502 13.0381Z" fill="#20223B"/>
<path d="M39.7042 7.02727C40.7522 8.07522 41.3503 9.19731 41.6518 10.6803C41.7211 11.0263 41.6914 11.0806 41.9682 10.0376C42.1906 9.18742 42.2203 8.93038 42.1214 8.51516C42.0127 8.0505 41.8298 7.71437 41.5036 7.39306C41.1575 7.04704 40.8609 6.90369 39.991 6.67137C39.6103 6.5725 39.2594 6.47858 39.205 6.46375C39.1556 6.44892 39.378 6.70597 39.7042 7.02727Z" fill="#20223B"/>
<path d="M27.9643 13.1271C27.9346 13.2211 27.8357 13.577 27.7517 13.918C27.549 14.7188 27.5639 15.1044 27.816 15.6531C28.1719 16.4094 28.6464 16.7505 29.7586 17.0322C30.0849 17.1162 30.3913 17.1953 30.4358 17.2102C30.4803 17.225 30.2678 16.9828 29.9613 16.6763C28.9776 15.6877 28.3399 14.5359 28.0829 13.2705L28.0186 12.9541L27.9643 13.1271Z" fill="#20223B"/>
<path d="M40.1392 16.2462C39.6993 16.8245 38.7601 17.561 37.9197 17.9812C37.4946 18.1938 36.7136 18.4607 36.2193 18.5645C36.0512 18.5991 35.9178 18.6387 35.9276 18.6485C35.9375 18.6584 36.0809 18.698 36.2391 18.7425C36.3972 18.782 36.7383 18.871 36.9855 18.9352C37.9889 19.2022 38.7304 19.039 39.4027 18.4063C39.7042 18.1196 39.8723 17.823 40.0107 17.3287C40.2776 16.3599 40.3666 16.0287 40.3468 16.0138C40.3369 16.004 40.2479 16.1078 40.1392 16.2462Z" fill="#20223B"/>
<defs>
<linearGradient id="paint0_linear_221_79" x1="35.1964" y1="0.842613" x2="35.1964" y2="22.5615" gradientUnits="userSpaceOnUse">
<stop stop-color="#EBCD84"/>
<stop offset="1" stop-color="#C4A263"/>
</linearGradient>
</defs>
</svg>
