<svg width="68" height="48" viewBox="0 0 68 48" fill="none" xmlns="http://www.w3.org/2000/svg">
<rect x="0.00683594" y="11.7061" width="67.2287" height="36.1229" rx="5.31144" fill="#20223B"/>
<path d="M16.3414 37.8108C16.1407 37.8108 15.8999 37.7941 15.6189 37.7607C15.338 37.7339 15.0838 37.6904 14.8563 37.6302L15.2777 40.4197L14.4048 40.6405C14.1907 38.7407 14.077 37.7005 14.0636 37.5199C14.0502 37.1854 14.0636 36.8977 14.1038 36.6569L14.1539 36.396C14.174 36.2823 14.2208 36.0147 14.2944 35.5933C14.368 35.1652 14.4248 34.8842 14.465 34.7504C14.5519 34.3424 14.7459 34.0347 15.047 33.8273C15.348 33.6132 15.7259 33.5062 16.1808 33.5062H17.8264V36.5164C17.8264 36.8844 17.7629 37.162 17.6358 37.3493C17.5154 37.5366 17.3481 37.6603 17.1341 37.7205C16.9267 37.7807 16.6625 37.8108 16.3414 37.8108ZM14.8162 36.5265C15.1306 36.58 15.5018 36.6201 15.93 36.6469C16.3581 36.6736 16.7394 36.687 17.0739 36.687V34.6501H15.8096C15.4349 34.6501 15.1975 34.8642 15.0971 35.2923L14.8162 36.5265ZM19.0793 31.2485L20.0526 31.1382V37.7607L19.1796 37.841L19.0793 31.2485ZM19.1954 38.8845C19.744 38.7708 20.2189 38.627 20.6203 38.453C21.0217 38.2858 21.326 38.1085 21.5334 37.9212C21.7475 37.7406 21.8578 37.5767 21.8645 37.4296L21.8746 36.9981C21.8746 36.9646 21.9114 36.8911 21.9849 36.7773C22.0585 36.6569 22.1421 36.5499 22.2358 36.4562C22.3294 36.3626 22.4097 36.3158 22.4766 36.3158C22.5769 36.3158 22.6271 36.4362 22.6271 36.677C22.6271 37.1921 22.5669 37.6503 22.4465 38.0517C22.3328 38.453 22.0385 38.841 21.5635 39.2156C21.0886 39.5902 20.3661 39.8645 19.3961 40.0384L19.1954 38.8845ZM21.5635 34.1183L22.5368 34.038C22.597 35.1485 22.6271 36.0281 22.6271 36.677C22.6271 37.0449 22.587 37.3426 22.5067 37.57C22.4331 37.7975 22.3428 37.958 22.2358 38.0517C22.1288 38.152 22.0284 38.2022 21.9348 38.2022C21.8879 38.2022 21.8511 38.1921 21.8244 38.1721C21.7976 38.152 21.7843 38.1253 21.7843 38.0918L21.5635 34.1183ZM23.8914 37.7607C23.5971 37.7607 23.3529 37.7406 23.1589 37.7005C22.9716 37.6603 22.8077 37.5734 22.6673 37.4396C22.5268 37.3058 22.4131 37.1051 22.3261 36.8375C22.2726 36.6636 22.2358 36.483 22.2157 36.2957C22.2023 36.1017 22.1957 35.8542 22.1957 35.5532L22.1856 35.0715L22.5569 34.4293L22.6071 35.5532C22.6204 35.8475 22.6639 36.0649 22.7375 36.2054C22.8111 36.3459 22.9315 36.4429 23.0987 36.4964C23.2726 36.5432 23.5369 36.5666 23.8914 36.5666L23.9918 36.667V37.6603L23.8914 37.7607ZM23.7898 36.5666H24.0808C25.218 36.5666 25.897 36.5298 26.1177 36.4562V35.503C26.1177 35.3157 26.091 35.1618 26.0375 35.0414C25.9906 34.9143 25.8836 34.8006 25.7164 34.7003C25.402 34.5063 24.83 34.1651 24.0005 33.6768L24.2614 32.0914L27.7232 30.9575L27.5326 32.0814L24.8534 32.9543L25.2347 33.1851C25.7565 33.4995 26.1244 33.747 26.3385 33.9276C26.5526 34.1016 26.7064 34.3156 26.8001 34.5698C26.8937 34.824 26.9405 35.1853 26.9405 35.6535V36.2455C26.9405 36.6603 26.8134 36.978 26.5592 37.1988C26.305 37.4195 25.9539 37.57 25.5057 37.6503C25.0575 37.7239 24.4855 37.7607 23.7898 37.7607V36.5666ZM24.6728 30.6465L27.2616 29.8337L27.2014 30.6264L24.5625 31.4893L24.6728 30.6465ZM30.6616 37.7607C30.1732 37.7607 29.7719 37.7272 29.4575 37.6603C29.1497 37.5868 28.8989 37.4362 28.7049 37.2088C28.5176 36.9747 28.4173 36.6235 28.4039 36.1552L28.2734 31.2485L29.2467 31.1382V36.0248C29.2467 36.1719 29.2835 36.2857 29.3571 36.3659C29.4374 36.4395 29.5779 36.493 29.7786 36.5265C29.9792 36.5532 30.2736 36.5666 30.6616 36.5666L30.7619 36.667V37.6603L30.6616 37.7607ZM30.566 36.5666H30.8771C31.2115 36.5666 31.4858 36.5432 31.6999 36.4964C31.9206 36.4496 32.0745 36.4027 32.1614 36.3559L32.0711 33.747L33.0244 33.6969V35.3625C33.0244 36.0248 32.9207 36.5332 32.7133 36.8877C32.5059 37.2356 32.2283 37.4697 31.8805 37.5901C31.5326 37.7038 31.0945 37.7607 30.566 37.7607V36.5666ZM34.2786 37.7607C33.9375 37.7607 33.6465 37.744 33.4057 37.7105C33.1715 37.6771 32.9474 37.5667 32.7334 37.3794C32.5193 37.1854 32.4123 36.8777 32.4123 36.4562V33.9979H33.0244V35.7338C33.0244 36.0683 33.128 36.2923 33.3354 36.4061C33.5428 36.5131 33.8572 36.5666 34.2786 36.5666L34.379 36.667V37.6603L34.2786 37.7607ZM32.3721 31.69V32.7436H31.148V31.69H32.3721ZM33.5963 31.69V32.7436H32.3721V31.69H33.5963ZM41.1833 37.7908C40.8756 37.7908 40.5378 37.744 40.1698 37.6503C39.8086 37.5567 39.4975 37.4195 39.2367 37.2389C38.9825 37.0583 38.8554 36.8409 38.8554 36.5867C38.8554 36.4128 38.9156 36.2321 39.036 36.0448C39.6447 36.3726 40.4474 36.5767 41.4442 36.6569L41.3539 33.6668L42.3472 33.6166V36.4863C42.3472 36.9345 42.2569 37.2657 42.0763 37.4797C41.8957 37.6871 41.598 37.7908 41.1833 37.7908ZM34.1795 36.5666H34.4905C35.0658 36.5666 35.4939 36.4964 35.7749 36.3559V33.9979H36.6378V35.3324C36.6378 36.008 36.5375 36.5231 36.3368 36.8777C36.1361 37.2255 35.8585 37.4597 35.504 37.5801C35.1561 37.7005 34.7146 37.7607 34.1795 37.7607V36.5666ZM37.6011 37.7908C37.0726 37.7908 36.6679 37.6771 36.387 37.4496C36.1127 37.2155 35.9756 36.8844 35.9756 36.4562V33.9979H36.6378V35.9244C36.6378 36.1653 36.7148 36.3358 36.8686 36.4362C37.0292 36.5365 37.2967 36.5867 37.6713 36.5867L37.6011 37.7908ZM37.6011 37.7908C37.561 37.7908 37.5074 37.7038 37.4406 37.5299C37.3803 37.3493 37.3502 37.1787 37.3502 37.0182C37.3502 36.8911 37.3737 36.7874 37.4205 36.7071C37.474 36.6268 37.5509 36.5867 37.6513 36.5867C37.8988 36.5867 38.1229 36.57 38.3236 36.5365C38.5309 36.5031 38.6948 36.4596 38.8152 36.4061V33.9477H39.6782V36.1954C39.6782 36.7305 39.4842 37.1319 39.0962 37.3994C38.7082 37.6603 38.2098 37.7908 37.6011 37.7908ZM43.8323 37.7607C43.1165 37.7607 42.6115 37.6436 42.3171 37.4095C42.0295 37.1687 41.8857 36.7941 41.8857 36.2857V35.0214H42.3472V35.2321C42.3472 35.6535 42.384 35.9545 42.4576 36.1351C42.5312 36.3158 42.665 36.4328 42.859 36.4863C43.053 36.5399 43.3774 36.5666 43.8323 36.5666L43.9326 36.667V37.6603L43.8323 37.7607ZM43.7311 36.5666H44.0421C44.3766 36.5666 44.6509 36.5432 44.8649 36.4964C45.0857 36.4496 45.2396 36.4027 45.3265 36.3559L45.2362 33.747L46.1895 33.6969V35.3625C46.1895 36.0248 46.0858 36.5332 45.8784 36.8877C45.671 37.2356 45.3934 37.4697 45.0456 37.5901C44.6977 37.7038 44.2596 37.7607 43.7311 37.7607V36.5666ZM47.4437 37.7607C47.1026 37.7607 46.8116 37.744 46.5707 37.7105C46.3366 37.6771 46.1125 37.5667 45.8985 37.3794C45.6844 37.1854 45.5774 36.8777 45.5774 36.4562V33.9979H46.1895V35.7338C46.1895 36.0683 46.2931 36.2923 46.5005 36.4061C46.7079 36.5131 47.0223 36.5666 47.4437 36.5666L47.5441 36.667V37.6603L47.4437 37.7607ZM46.2798 31.5596V32.7135H45.1559V31.5596H46.2798ZM47.3446 36.5666C47.6054 36.5666 47.9031 36.5499 48.2376 36.5164C48.5721 36.483 48.8062 36.4295 48.94 36.3559L48.8296 33.5664L49.823 33.5162V35.9545C49.823 36.6168 49.6089 37.085 49.1808 37.3593C48.7594 37.6269 48.1473 37.7607 47.3446 37.7607V36.5666ZM48.5587 38.5734V39.627H47.3345V38.5734H48.5587ZM49.7828 38.5734V39.627H48.5587V38.5734H49.7828ZM51.0736 31.2485L52.047 31.1382V37.7607L51.174 37.841L51.0736 31.2485Z" fill="white"/>
<path d="M26.5973 5.68559L26.0956 15.218C30.9454 14.3818 40.7454 12.7095 41.1468 12.7095C41.5481 12.7095 41.983 11.3716 42.1502 10.7027L41.6485 6.689L39.1399 5.18388L26.5973 5.68559Z" fill="#20223B"/>
<path d="M34.1226 13.6382C33.0879 13.6382 32.1911 12.8104 32.1911 11.7067C32.1911 10.6719 33.0189 9.77509 34.1226 9.77509C35.1574 9.77509 36.0542 10.6029 36.0542 11.7067C36.0542 12.7414 35.1574 13.6382 34.1226 13.6382Z" fill="url(#paint0_linear_221_102)"/>
<path fill-rule="evenodd" clip-rule="evenodd" d="M36.4681 7.01571H31.7771C31.2253 7.08469 30.9493 7.15368 30.7424 7.22266C30.4664 7.29165 30.2595 7.42962 30.0525 7.63657C29.8888 7.80033 29.8114 7.96409 29.7179 8.16203C29.6932 8.2142 29.6674 8.26888 29.6386 8.32642C29.628 8.35843 29.6156 8.3921 29.6024 8.42818C29.5303 8.62535 29.4317 8.89469 29.4317 9.36119V14.0521C29.5007 14.604 29.5696 14.88 29.6386 15.0869C29.7076 15.3629 29.8456 15.5698 30.0525 15.7768C30.2163 15.9405 30.3801 16.0179 30.578 16.1114C30.6302 16.1361 30.6848 16.1619 30.7424 16.1907C30.7744 16.2013 30.8081 16.2137 30.8441 16.2269C31.0413 16.299 31.3106 16.3976 31.7771 16.3976H36.4681C37.02 16.3286 37.2959 16.2597 37.5029 16.1907C37.7788 16.1217 37.9858 15.9837 38.1927 15.7768C38.3565 15.613 38.4339 15.4492 38.5274 15.2513C38.552 15.1991 38.5778 15.1445 38.6066 15.0869C38.6173 15.0549 38.6296 15.0212 38.6428 14.9851C38.715 14.788 38.8136 14.5186 38.8136 14.0521V9.36119C38.7446 8.80931 38.6756 8.53337 38.6066 8.32642C38.5376 8.05048 38.3997 7.84353 38.1927 7.63657C38.029 7.47281 37.8652 7.39544 37.6673 7.30192C37.6151 7.27729 37.5604 7.25141 37.5029 7.22266C37.4709 7.21199 37.4372 7.19967 37.4011 7.18646C37.2039 7.11429 36.9346 7.01571 36.4681 7.01571ZM34.1226 8.74033C32.467 8.74033 31.1563 10.051 31.1563 11.7067C31.1563 13.3623 32.467 14.673 34.1226 14.673C35.7783 14.673 37.089 13.3623 37.089 11.7067C37.089 10.051 35.7783 8.74033 34.1226 8.74033ZM37.8478 8.67134C37.8478 9.05233 37.5389 9.36119 37.1579 9.36119C36.777 9.36119 36.4681 9.05233 36.4681 8.67134C36.4681 8.29035 36.777 7.98149 37.1579 7.98149C37.5389 7.98149 37.8478 8.29035 37.8478 8.67134Z" fill="url(#paint1_linear_221_102)"/>
<path fill-rule="evenodd" clip-rule="evenodd" d="M23.0851 11.7067C23.0851 5.6108 28.0268 0.669125 34.1226 0.669125C40.2185 0.669125 45.1602 5.6108 45.1602 11.7067C45.1602 17.8025 40.2185 22.7442 34.1226 22.7442C28.0268 22.7442 23.0851 17.8025 23.0851 11.7067ZM31.7771 5.98094H36.4681C37.089 6.04992 37.5029 6.11891 37.8478 6.25688C38.2617 6.46383 38.5376 6.6018 38.8826 6.94673C39.2275 7.29165 39.4344 7.63657 39.5724 7.98149C39.7104 8.32642 39.8484 8.74033 39.8484 9.36119V14.0521C39.7794 14.673 39.7104 15.0869 39.5724 15.4318C39.3655 15.8457 39.2275 16.1217 38.8826 16.4666C38.5376 16.8115 38.1927 17.0185 37.8478 17.1565C37.5029 17.2944 37.089 17.4324 36.4681 17.4324H31.7771C31.1563 17.3634 30.7424 17.2944 30.3975 17.1565C29.9835 16.9495 29.7076 16.8115 29.3627 16.4666C29.0178 16.1217 28.8108 15.7768 28.6728 15.4318C28.5349 15.0869 28.3969 14.673 28.3969 14.0521V9.36119C28.4659 8.74033 28.5349 8.32642 28.6728 7.98149C28.8798 7.56759 29.0178 7.29165 29.3627 6.94673C29.7076 6.6018 30.0525 6.39485 30.3975 6.25688C30.7424 6.11891 31.1563 5.98094 31.7771 5.98094Z" fill="url(#paint2_linear_221_102)"/>
<defs>
<linearGradient id="paint0_linear_221_102" x1="34.1226" y1="0.669125" x2="34.1226" y2="22.7442" gradientUnits="userSpaceOnUse">
<stop stop-color="#EBCD84"/>
<stop offset="1" stop-color="#C4A263"/>
</linearGradient>
<linearGradient id="paint1_linear_221_102" x1="34.1226" y1="0.669125" x2="34.1226" y2="22.7442" gradientUnits="userSpaceOnUse">
<stop stop-color="#EBCD84"/>
<stop offset="1" stop-color="#C4A263"/>
</linearGradient>
<linearGradient id="paint2_linear_221_102" x1="34.1226" y1="0.669125" x2="34.1226" y2="22.7442" gradientUnits="userSpaceOnUse">
<stop stop-color="#EBCD84"/>
<stop offset="1" stop-color="#C4A263"/>
</linearGradient>
</defs>
</svg>
