<svg width="71" height="49" viewBox="0 0 71 49" fill="none" xmlns="http://www.w3.org/2000/svg">
<rect x="0.0324707" y="11.4732" width="70.3279" height="37.2324" rx="5.47459" fill="#20223B"/>
<path d="M22.2818 39.3965C20.6615 39.3965 19.8513 38.6967 19.8513 37.297C19.8513 37.0557 19.8996 36.28 19.9961 34.97L20.8028 35.032C20.7476 36.0938 20.7201 36.773 20.7201 37.0695C20.7201 37.4901 20.8717 37.7797 21.1751 37.9382C21.4785 38.0899 21.8715 38.1658 22.3541 38.1658C23.3194 38.1658 24.0986 38.0106 24.6915 37.7004L24.5881 34.2564L25.5913 34.1529V37.3591C25.5913 38.021 25.281 38.5243 24.6605 38.869C24.04 39.2207 23.247 39.3965 22.2818 39.3965ZM26.8841 38.021C26.5531 38.021 26.2773 38.0037 26.0567 37.9693C25.843 37.9348 25.6396 37.821 25.4465 37.628C25.2603 37.428 25.1673 37.1108 25.1673 36.6765V34.7838L25.5913 34.7631V35.9318C25.5913 36.2766 25.6982 36.5075 25.9119 36.6248C26.1257 36.7351 26.4497 36.7902 26.8841 36.7902L26.9875 36.8937V37.9175L26.8841 38.021ZM23.2436 33.8737V35.0631H22.0852V33.8737H23.2436ZM26.7807 36.7902C27.0496 36.7902 27.3564 36.773 27.7011 36.7385C28.0459 36.704 28.2872 36.6489 28.4251 36.573L28.3113 33.6979L29.3352 33.6462V36.1594C29.3352 36.8419 29.1146 37.3246 28.6733 37.6073C28.2389 37.8831 27.6081 38.021 26.7807 38.021V36.7902ZM28.0321 38.8587V39.9446H26.7703V38.8587H28.0321ZM29.2939 38.8587V39.9446H28.0321V38.8587H29.2939ZM35.0612 35.7974C35.1163 36.1352 35.2198 36.3869 35.3714 36.5524C35.53 36.7109 35.7989 36.7902 36.1781 36.7902H36.5298L36.6332 36.8937V37.9175L36.5298 38.021H36.0437C35.5817 38.021 35.1853 37.8658 34.8543 37.5556C34.5234 37.2384 34.3096 36.8351 34.2131 36.3455L33.5305 32.9015L34.482 32.5188L35.0612 35.7974ZM34.7509 35.1665C34.9233 35.6147 35.0095 36.0042 35.0095 36.3352C35.0095 36.9902 34.7164 37.4487 34.1304 37.7107C33.5443 37.9658 32.779 38.0934 31.8344 38.0934C30.9242 38.0934 30.4692 37.6107 30.4692 36.6454V35.1458L31.3069 35.1665V36.8626C32.7824 36.8626 33.7684 36.7799 34.2648 36.6144L34.2131 36.3455L34.7509 35.1665ZM36.4314 36.7902H36.7313C37.9034 36.7902 38.6033 36.7523 38.8308 36.6765V35.6939C38.8308 35.5009 38.8032 35.3423 38.7481 35.2182C38.6998 35.0872 38.5895 34.97 38.4171 34.8666C38.093 34.6666 37.5035 34.315 36.6486 33.8116L36.9175 32.1775L40.4856 31.0089L40.2891 32.1672L37.5277 33.067L37.9207 33.3049C38.4585 33.6289 38.8377 33.884 39.0583 34.0702C39.279 34.2495 39.4375 34.4701 39.5341 34.7321C39.6306 34.9941 39.6789 35.3664 39.6789 35.8491V36.4593C39.6789 36.8868 39.5479 37.2143 39.2859 37.4418C39.0239 37.6693 38.6619 37.8245 38.1999 37.9072C37.738 37.9831 37.1484 38.021 36.4314 38.021V36.7902ZM40.9717 38.021C40.62 38.021 40.3201 38.0037 40.0719 37.9693C39.8306 37.9348 39.5996 37.821 39.3789 37.628C39.1583 37.428 39.048 37.1108 39.048 36.6765V35.8387H39.6789V35.9318C39.6789 36.2766 39.7857 36.5075 39.9995 36.6248C40.2132 36.7351 40.5373 36.7902 40.9717 36.7902L41.0751 36.8937V37.9175L40.9717 38.021ZM40.8729 36.7902H41.1935C41.5383 36.7902 41.821 36.7661 42.0416 36.7178C42.2691 36.6696 42.4277 36.6213 42.5174 36.573L42.4243 33.884L43.4068 33.8323V35.5492C43.4068 36.2317 43.2999 36.7558 43.0862 37.1212C42.8724 37.4797 42.5863 37.721 42.2278 37.8452C41.8692 37.9624 41.4176 38.021 40.8729 38.021V36.7902ZM44.6996 38.021C44.348 38.021 44.048 38.0037 43.7998 37.9693C43.5585 37.9348 43.3275 37.821 43.1069 37.628C42.8862 37.428 42.7759 37.1108 42.7759 36.6765V34.1426H43.4068V35.9318C43.4068 36.2766 43.5137 36.5075 43.7274 36.6248C43.9412 36.7351 44.2652 36.7902 44.6996 36.7902L44.803 36.8937V37.9175L44.6996 38.021ZM43.4999 31.6294V32.8188H42.3415V31.6294H43.4999ZM44.5974 36.7902H44.918C45.2627 36.7902 45.5454 36.7661 45.7661 36.7178C45.9936 36.6696 46.1522 36.6213 46.2418 36.573L46.1487 33.884L47.1313 33.8323V35.5492C47.1313 36.2317 47.0244 36.7558 46.8106 37.1212C46.5969 37.4797 46.3108 37.721 45.9522 37.8452C45.5937 37.9624 45.1421 38.021 44.5974 38.021V36.7902ZM48.4241 38.021C48.0724 38.021 47.7725 38.0037 47.5243 37.9693C47.2829 37.9348 47.052 37.821 46.8313 37.628C46.6107 37.428 46.5004 37.1108 46.5004 36.6765V34.1426H47.1313V35.9318C47.1313 36.2766 47.2381 36.5075 47.4519 36.6248C47.6656 36.7351 47.9897 36.7902 48.4241 36.7902L48.5275 36.8937V37.9175L48.4241 38.021ZM46.5004 38.8587V39.9446H45.2386V38.8587H46.5004ZM47.7621 38.8587V39.9446H46.5004V38.8587H47.7621ZM48.3218 36.7902C48.5356 36.7902 48.7872 36.773 49.0768 36.7385C49.3733 36.6972 49.5939 36.642 49.7387 36.573L49.6457 31.3088L50.6489 31.195V36.3662C50.6489 36.9592 50.4524 37.3832 50.0594 37.6383C49.6663 37.8934 49.0872 38.021 48.3218 38.021V36.7902Z" fill="white"/>
<path d="M29.5865 5.26781L26.9225 11.8493V12.5075H44.5045V11.8493L42.3734 5.26781H29.5865Z" fill="#20223B"/>
<path fill-rule="evenodd" clip-rule="evenodd" d="M23.82 11.4737C23.82 5.19059 28.9135 0.0971203 35.1966 0.0971203C41.4797 0.0971203 46.5732 5.19059 46.5732 11.4737C46.5732 17.7568 41.4797 22.8503 35.1966 22.8503C28.9135 22.8503 23.82 17.7568 23.82 11.4737ZM29.6505 9.5539V17.162H32.068V9.5539H29.6505ZM29.5083 7.13638C29.5083 7.91852 30.0771 8.48735 30.8593 8.48735C31.6414 8.48735 32.2102 7.91852 32.2102 7.13638C32.2102 6.35424 31.6414 5.78541 30.8593 5.78541C30.1482 5.78541 29.5083 6.35424 29.5083 7.13638ZM38.4674 17.162H40.7427V12.4692C40.7427 10.1227 39.3206 9.34059 37.9696 9.34059C36.7609 9.34059 35.9076 10.1227 35.6943 10.6205V9.5539H33.419V17.162H35.8365V13.1091C35.8365 12.0425 36.5476 11.4737 37.2586 11.4737C37.9696 11.4737 38.4674 11.8292 38.4674 13.038V17.162Z" fill="url(#paint0_linear_221_62)"/>
<defs>
<linearGradient id="paint0_linear_221_62" x1="35.1966" y1="0.0971203" x2="35.1966" y2="22.8503" gradientUnits="userSpaceOnUse">
<stop stop-color="#EBCD84"/>
<stop offset="1" stop-color="#C4A263"/>
</linearGradient>
</defs>
</svg>
