<svg width="70" height="49" viewBox="0 0 70 49" fill="none" xmlns="http://www.w3.org/2000/svg">
<rect x="0.531616" y="11.4732" width="69.2937" height="37.2324" rx="5.47459" fill="#20223B"/>
<path d="M27.4598 38.0727C27.253 38.0727 27.0048 38.0554 26.7152 38.021C26.4256 37.9934 26.1636 37.9486 25.9291 37.8865L26.3635 40.7617L25.4637 40.9892C25.2431 39.0311 25.1259 37.9589 25.1121 37.7728C25.0983 37.428 25.1121 37.1315 25.1535 36.8833L25.2052 36.6144C25.2259 36.4972 25.2741 36.2214 25.35 35.787C25.4258 35.3458 25.4844 35.0562 25.5258 34.9183C25.6154 34.4977 25.8154 34.1805 26.1257 33.9668C26.4359 33.7461 26.8255 33.6358 27.2943 33.6358H28.9905V36.7385C28.9905 37.1177 28.925 37.4039 28.794 37.5969C28.6699 37.79 28.4975 37.9175 28.2769 37.9796C28.0631 38.0417 27.7908 38.0727 27.4598 38.0727ZM25.8878 36.7489C26.2118 36.804 26.5945 36.8454 27.0358 36.873C27.4771 36.9006 27.8701 36.9143 28.2148 36.9143V34.8148H26.9117C26.5256 34.8148 26.2808 35.0355 26.1774 35.4768L25.8878 36.7489ZM30.2818 31.3088L31.285 31.195V38.021L30.3852 38.1037L30.2818 31.3088ZM30.4016 39.1793C30.9669 39.0621 31.4565 38.9139 31.8702 38.7346C32.2839 38.5622 32.5976 38.3795 32.8113 38.1865C33.032 38.0003 33.1457 37.8314 33.1526 37.6797L33.163 37.235C33.163 37.2005 33.2009 37.1246 33.2767 37.0074C33.3526 36.8833 33.4388 36.773 33.5353 36.6765C33.6318 36.5799 33.7146 36.5317 33.7835 36.5317C33.8869 36.5317 33.9386 36.6558 33.9386 36.904C33.9386 37.4349 33.8766 37.9072 33.7525 38.3209C33.6353 38.7346 33.3319 39.1345 32.8424 39.5206C32.3528 39.9067 31.6082 40.1894 30.6084 40.3687L30.4016 39.1793ZM32.8424 34.2667L33.8456 34.184C33.9076 35.3285 33.9386 36.2352 33.9386 36.904C33.9386 37.2832 33.8973 37.59 33.8145 37.8245C33.7387 38.0589 33.6456 38.2244 33.5353 38.3209C33.425 38.4243 33.3216 38.476 33.225 38.476C33.1768 38.476 33.1388 38.4657 33.1113 38.445C33.0837 38.4243 33.0699 38.3967 33.0699 38.3623L32.8424 34.2667ZM35.2418 38.021C34.9384 38.021 34.6867 38.0003 34.4868 37.9589C34.2937 37.9175 34.1248 37.8279 33.98 37.69C33.8352 37.5521 33.718 37.3453 33.6284 37.0695C33.5732 36.8902 33.5353 36.704 33.5146 36.511C33.5008 36.311 33.4939 36.0559 33.4939 35.7457L33.4836 35.2492L33.8663 34.5873L33.918 35.7457C33.9318 36.049 33.9766 36.2731 34.0524 36.4179C34.1283 36.5627 34.2524 36.6627 34.4247 36.7178C34.604 36.7661 34.8764 36.7902 35.2418 36.7902L35.3452 36.8937V37.9175L35.2418 38.021ZM35.1371 36.7902H35.437C36.6091 36.7902 37.309 36.7523 37.5365 36.6765V35.6939C37.5365 35.5009 37.5089 35.3423 37.4538 35.2182C37.4055 35.0872 37.2952 34.97 37.1228 34.8666C36.7987 34.6666 36.2092 34.315 35.3543 33.8116L35.6232 32.1775L39.1913 31.0089L38.9948 32.1672L36.2334 33.067L36.6264 33.3049C37.1642 33.6289 37.5434 33.884 37.764 34.0702C37.9847 34.2495 38.1432 34.4701 38.2398 34.7321C38.3363 34.9941 38.3846 35.3664 38.3846 35.8491V36.4593C38.3846 36.8868 38.2536 37.2143 37.9916 37.4418C37.7295 37.6693 37.3676 37.8245 36.9056 37.9072C36.4437 37.9831 35.8541 38.021 35.1371 38.021V36.7902ZM39.6774 38.021C39.3257 38.021 39.0258 38.0037 38.7776 37.9693C38.5363 37.9348 38.3053 37.821 38.0846 37.628C37.864 37.428 37.7537 37.1108 37.7537 36.6765V35.8387H38.3846V35.9318C38.3846 36.2766 38.4914 36.5075 38.7052 36.6248C38.9189 36.7351 39.243 36.7902 39.6774 36.7902L39.7808 36.8937V37.9175L39.6774 38.021ZM36.0472 30.6882L38.7155 29.8505L38.6535 30.6676L35.9334 31.557L36.0472 30.6882ZM39.5786 36.7902C40.275 36.7902 40.7542 36.7178 41.0162 36.573L40.9024 31.3088L41.9056 31.195V35.5492C41.9056 36.2042 41.8091 36.7144 41.6161 37.0798C41.423 37.4384 41.1576 37.6866 40.8197 37.8245C40.4819 37.9555 40.0682 38.021 39.5786 38.021V36.7902ZM43.126 38.021C42.802 38.021 42.5193 38.0037 42.278 37.9693C42.0435 37.9348 41.816 37.821 41.5954 37.628C41.3816 37.428 41.2748 37.1108 41.2748 36.6765V34.9493H41.9056V35.9318C41.9056 36.2766 42.0091 36.5075 42.2159 36.6248C42.4228 36.7351 42.7261 36.7902 43.126 36.7902L43.2295 36.8937V37.9175L43.126 38.021ZM43.0203 36.7902C43.2892 36.7902 43.596 36.773 43.9407 36.7385C44.2855 36.704 44.5268 36.6489 44.6647 36.573L44.5509 33.6979L45.5748 33.6462V36.1594C45.5748 36.8419 45.3542 37.3246 44.9129 37.6073C44.4785 37.8831 43.8477 38.021 43.0203 38.021V36.7902ZM44.4682 31.5777V32.6636H43.2064V31.5777H44.4682ZM45.73 31.5777V32.6636H44.4682V31.5777H45.73Z" fill="white"/>
<path d="M30.0073 6.30204L27.4217 11.4732V11.9903H44.4866V11.4732L42.4181 6.30204H30.0073Z" fill="#20223B"/>
<path fill-rule="evenodd" clip-rule="evenodd" d="M35.6956 22.8498C29.4125 22.8498 24.319 17.7563 24.319 11.4732C24.319 5.1901 29.4125 0.096632 35.6956 0.096632C41.9787 0.096632 47.0722 5.1901 47.0722 11.4732C47.0722 17.7563 41.9787 22.8498 35.6956 22.8498ZM36.1875 8.63431C35.1686 9.05811 33.1322 9.93528 30.0784 11.2658C29.5825 11.463 29.3227 11.6559 29.299 11.8446C29.2591 12.1634 29.6583 12.2889 30.202 12.4599C30.2759 12.4831 30.3525 12.5072 30.4311 12.5327C30.966 12.7066 31.6854 12.91 32.0595 12.9181C32.3988 12.9254 32.7775 12.7855 33.1955 12.4985C36.0489 10.5724 37.5218 9.59885 37.6142 9.57786C37.6795 9.56305 37.7699 9.54443 37.8311 9.59888C37.8924 9.65332 37.8864 9.75642 37.8799 9.78408C37.8403 9.95269 36.2732 11.4096 35.4622 12.1636C35.2094 12.3987 35.03 12.5654 34.9934 12.6035C34.9112 12.6888 34.8275 12.7695 34.7471 12.847C34.2502 13.326 33.8776 13.6852 34.7677 14.2719C35.1955 14.5538 35.5378 14.7869 35.8793 15.0194C36.2523 15.2734 36.6243 15.5267 37.1055 15.8422C37.2282 15.9226 37.3453 16.0061 37.4593 16.0874C37.8934 16.3968 38.2833 16.6748 38.765 16.6305C39.045 16.6047 39.3341 16.3415 39.481 15.5565C39.828 13.7012 40.5102 9.68147 40.6678 8.02502C40.6816 7.87989 40.6642 7.69416 40.6503 7.61262C40.6363 7.53109 40.6072 7.41492 40.5012 7.32893C40.3757 7.22709 40.1819 7.20561 40.0953 7.20706C39.7013 7.21408 39.0967 7.42427 36.1875 8.63431Z" fill="url(#paint0_linear_221_74)"/>
<defs>
<linearGradient id="paint0_linear_221_74" x1="35.6956" y1="0.096632" x2="35.6956" y2="22.8498" gradientUnits="userSpaceOnUse">
<stop stop-color="#EBCD84"/>
<stop offset="1" stop-color="#C4A263"/>
</linearGradient>
</defs>
</svg>
