<svg width="71" height="50" viewBox="0 0 71 50" fill="none" xmlns="http://www.w3.org/2000/svg">
<rect x="0.533356" y="12.2534" width="70.3279" height="37.2324" rx="5.47459" fill="#20223B"/>
<path d="M24.1604 39.9595C24.7257 39.8423 25.2153 39.6941 25.629 39.5148C26.0427 39.3424 26.3564 39.1597 26.5701 38.9666C26.7908 38.7805 26.9045 38.6116 26.9114 38.4599L26.9218 38.0151C26.9218 37.9807 26.9597 37.9048 27.0355 37.7876C27.1114 37.6635 27.1976 37.5532 27.2941 37.4567C27.3906 37.3601 27.4734 37.3119 27.5423 37.3119C27.6457 37.3119 27.6974 37.436 27.6974 37.6842C27.6974 38.2151 27.6354 38.6874 27.5113 39.1011C27.3941 39.5148 27.0907 39.9147 26.6012 40.3008C26.1116 40.6869 25.367 40.9696 24.3672 41.1489L24.1604 39.9595ZM26.6012 35.0469L27.6044 34.9642C27.6664 36.1087 27.6974 37.0154 27.6974 37.6842C27.6974 38.0634 27.6561 38.3702 27.5733 38.6047C27.4975 38.8391 27.4044 39.0046 27.2941 39.1011C27.1838 39.2045 27.0804 39.2562 26.9838 39.2562C26.9356 39.2562 26.8976 39.2459 26.8701 39.2252C26.8425 39.2045 26.8287 39.1769 26.8287 39.1425L26.6012 35.0469ZM29.0006 38.8012C28.6972 38.8012 28.4455 38.7805 28.2456 38.7391C28.0525 38.6977 27.8836 38.6081 27.7388 38.4702C27.594 38.3323 27.4768 38.1255 27.3872 37.8497C27.332 37.6704 27.2941 37.4842 27.2734 37.2912C27.2596 37.0912 27.2527 36.8361 27.2527 36.5258L27.2424 36.0294L27.625 35.3675L27.6768 36.5258C27.6905 36.8292 27.7354 37.0533 27.8112 37.1981C27.8871 37.3429 28.0112 37.4429 28.1835 37.498C28.3628 37.5463 28.6352 37.5704 29.0006 37.5704L29.104 37.6738V38.6977L29.0006 38.8012ZM28.8959 37.5704H29.2165C29.5612 37.5704 29.8439 37.5463 30.0645 37.498C30.2921 37.4498 30.4507 37.4015 30.5403 37.3532L30.4472 34.6642L31.4297 34.6125V36.3293C31.4297 37.0119 31.3229 37.5359 31.1091 37.9014C30.8954 38.2599 30.6092 38.5012 30.2507 38.6253C29.8922 38.7426 29.4406 38.8012 28.8959 38.8012V37.5704ZM32.7225 38.8012C32.3709 38.8012 32.071 38.7839 31.8227 38.7495C31.5814 38.715 31.3504 38.6012 31.1298 38.4082C30.9092 38.2082 30.7989 37.891 30.7989 37.4567V34.9228H31.4297V36.712C31.4297 37.0568 31.5366 37.2877 31.7504 37.4049C31.9641 37.5153 32.2882 37.5704 32.7225 37.5704L32.826 37.6738V38.6977L32.7225 38.8012ZM30.7575 32.544V33.63H29.4957V32.544H30.7575ZM32.0193 32.544V33.63H30.7575V32.544H32.0193ZM32.6203 37.5704H32.9409C33.2857 37.5704 33.5684 37.5463 33.789 37.498C34.0165 37.4498 34.1751 37.4015 34.2648 37.3532L34.1717 34.6642L35.1542 34.6125V36.3293C35.1542 37.0119 35.0473 37.5359 34.8336 37.9014C34.6198 38.2599 34.3337 38.5012 33.9752 38.6253C33.6166 38.7426 33.165 38.8012 32.6203 38.8012V37.5704ZM36.447 38.8012C36.0953 38.8012 35.7954 38.7839 35.5472 38.7495C35.3059 38.715 35.0749 38.6012 34.8543 38.4082C34.6336 38.2082 34.5233 37.891 34.5233 37.4567V34.9228H35.1542V36.712C35.1542 37.0568 35.2611 37.2877 35.4748 37.4049C35.6886 37.5153 36.0126 37.5704 36.447 37.5704L36.5504 37.6738V38.6977L36.447 38.8012ZM34.5233 39.6389V40.7248H33.2615V39.6389H34.5233ZM35.7851 39.6389V40.7248H34.5233V39.6389H35.7851ZM36.3448 37.5704C36.6137 37.5704 36.9205 37.5532 37.2652 37.5187C37.61 37.4842 37.8513 37.4291 37.9892 37.3532L37.8754 34.4781L38.8993 34.4264V36.9395C38.8993 37.6221 38.6787 38.1048 38.2374 38.3875C37.803 38.6633 37.1722 38.8012 36.3448 38.8012V37.5704ZM37.5962 39.6389V40.7248H36.3344V39.6389H37.5962ZM38.858 39.6389V40.7248H37.5962V39.6389H38.858ZM43.1567 39.0494C43.1567 38.0772 43.1325 37.3808 43.0843 36.9602C43.036 36.5396 42.8912 36.2121 42.6499 35.9777C42.4086 35.7364 42.0052 35.6157 41.4398 35.6157H41.0985L40.9227 37.5808C41.0606 37.6083 41.3743 37.6221 41.8639 37.6221C42.4293 37.6152 42.905 37.598 43.2911 37.5704C43.3876 37.5704 43.46 37.5704 43.5083 37.5704C43.5566 37.5635 43.591 37.5601 43.6117 37.5601V38.7081C43.5704 38.7081 43.4118 38.7219 43.136 38.7495C42.5017 38.8184 41.9983 38.8529 41.626 38.8529C40.6331 38.8529 40.1367 38.4564 40.1367 37.6635C40.1367 37.5601 40.1401 37.4808 40.147 37.4256L40.478 34.4264H41.4088C42.1052 34.4264 42.6361 34.5746 43.0015 34.8711C43.367 35.1607 43.6117 35.5675 43.7358 36.0915C43.8668 36.6086 43.9323 37.2808 43.9323 38.1082L43.1567 39.0494ZM40.147 39.9595C40.9262 39.8768 41.5605 39.7492 42.05 39.5768C42.5396 39.4114 42.9085 39.2252 43.1567 39.0184V38.0151C43.1567 37.96 43.2153 37.8807 43.3325 37.7773C43.4566 37.6738 43.5704 37.6221 43.6738 37.6221C43.8462 37.6221 43.9323 37.7842 43.9323 38.1082C43.9323 38.6943 43.8668 39.1631 43.7358 39.5148C43.6117 39.8733 43.2911 40.1939 42.774 40.4766C42.2638 40.7662 41.4571 40.9903 40.3539 41.1489L40.147 39.9595ZM43.6117 37.5704H44.9356L45.039 37.6738V38.6977L44.9356 38.8012H43.6117V37.5704ZM44.834 37.5704C45.1029 37.5704 45.4097 37.5532 45.7545 37.5187C46.0992 37.4842 46.3405 37.4291 46.4784 37.3532L46.3647 34.4781L47.3885 34.4264V36.9395C47.3885 37.6221 47.1679 38.1048 46.7266 38.3875C46.2923 38.6633 45.6614 38.8012 44.834 38.8012V37.5704ZM46.2819 32.3579V33.4438H45.0201V32.3579H46.2819ZM47.5437 32.3579V33.4438H46.2819V32.3579H47.5437Z" fill="white"/>
<g clip-path="url(#clip0_221_94)">
<path d="M35.6974 22.5958C41.4093 22.5958 46.0397 17.9654 46.0397 12.2534C46.0397 6.54153 41.4093 1.9111 35.6974 1.9111C29.9854 1.9111 25.355 6.54153 25.355 12.2534C25.355 17.9654 29.9854 22.5958 35.6974 22.5958Z" fill="url(#paint0_linear_221_94)"/>
<path d="M42.3287 8.1394C41.8408 8.35587 41.3169 8.50221 40.766 8.56799C41.3282 8.23131 41.7589 7.69779 41.9623 7.06281C41.4282 7.38003 40.8437 7.60335 40.2342 7.72307C39.7381 7.19433 39.0308 6.86422 38.2482 6.86422C36.7461 6.86422 35.5279 8.08195 35.5279 9.58494C35.5279 9.7979 35.5518 10.0057 35.598 10.2051C33.3367 10.0915 31.332 9.00833 29.9901 7.36248C29.7558 7.76444 29.6217 8.2318 29.6217 8.73044C29.6217 9.67425 30.1021 10.507 30.832 10.9948C30.3999 10.9814 29.9773 10.8647 29.5995 10.6546V10.689C29.5995 12.0073 30.5372 13.1066 31.7819 13.3566C31.5532 13.4193 31.3133 13.452 31.065 13.452C30.8895 13.452 30.7192 13.4354 30.5529 13.4041C30.8991 14.4846 31.9039 15.2712 33.0941 15.2934C32.163 16.0234 30.9897 16.4585 29.7153 16.4585C29.4958 16.4585 29.2789 16.4454 29.0659 16.4197C30.2702 17.1919 31.7 17.6427 33.2366 17.6427C38.2408 17.6427 40.9776 13.4969 40.9776 9.9016C40.9776 9.78357 40.975 9.66642 40.9693 9.54968C41.5026 9.164 41.9629 8.68645 42.3287 8.1394Z" fill="#20223B"/>
</g>
<defs>
<linearGradient id="paint0_linear_221_94" x1="35.6974" y1="1.9111" x2="35.6974" y2="22.5958" gradientUnits="userSpaceOnUse">
<stop stop-color="#EBCD84"/>
<stop offset="1" stop-color="#C4A263"/>
</linearGradient>
<clipPath id="clip0_221_94">
<rect width="20.6847" height="20.6847" fill="white" transform="translate(25.355 1.91106)"/>
</clipPath>
</defs>
</svg>
