<svg width="71" height="49" viewBox="0 0 71 49" fill="none" xmlns="http://www.w3.org/2000/svg">
<rect x="0.533356" y="11.4732" width="70.3279" height="37.2324" rx="5.47459" fill="#20223B"/>
<path d="M25.1435 38.1244C23.992 38.1244 23.1853 37.9451 22.7234 37.5866C22.2614 37.2212 22.0304 36.704 22.0304 36.0352C22.0304 35.8077 22.0408 35.5078 22.0614 35.1355C22.089 34.7631 22.1166 34.4529 22.1442 34.2046L22.9405 34.2667C22.9405 34.315 22.9337 34.4012 22.9199 34.5253C22.8854 35.0906 22.8681 35.5009 22.8681 35.756C22.8681 36.0456 22.9405 36.2731 23.0853 36.4386C23.237 36.5972 23.499 36.7144 23.8714 36.7902C24.2437 36.8592 24.778 36.8937 25.4744 36.8937C26.0743 36.8937 26.6845 36.8661 27.305 36.8109C27.9256 36.7558 28.4599 36.673 28.9081 36.5627L28.8047 33.8737L29.8079 33.791V36.0249C29.8079 36.3903 29.7493 36.6972 29.632 36.9454C29.5148 37.1867 29.3114 37.3866 29.0218 37.5452C28.3048 37.9313 27.012 38.1244 25.1435 38.1244ZM25.3607 38.8484H26.519V40.0377H25.3607V38.8484ZM34.0672 38.2692C34.0672 37.297 34.0431 36.6006 33.9948 36.18C33.9466 35.7594 33.8018 35.4319 33.5604 35.1975C33.3191 34.9562 32.9158 34.8355 32.3504 34.8355H32.0091L31.8333 36.8006C31.9712 36.8282 32.2849 36.8419 32.7744 36.8419C33.3398 36.8351 33.8156 36.8178 34.2017 36.7902C34.2982 36.7902 34.3706 36.7902 34.4189 36.7902C34.4671 36.7833 34.5016 36.7799 34.5223 36.7799V37.9279C34.4809 37.9279 34.3223 37.9417 34.0465 37.9693C33.4122 38.0382 32.9089 38.0727 32.5365 38.0727C31.5437 38.0727 31.0472 37.6762 31.0472 36.8833C31.0472 36.7799 31.0507 36.7006 31.0576 36.6454L31.3885 33.6462H32.3194C33.0157 33.6462 33.5466 33.7944 33.9121 34.0909C34.2775 34.3805 34.5223 34.7873 34.6464 35.3113C34.7774 35.8284 34.8429 36.5006 34.8429 37.328L34.0672 38.2692ZM31.0576 39.1793C31.8367 39.0966 32.471 38.969 32.9606 38.7966C33.4501 38.6312 33.819 38.445 34.0672 38.2382V37.235C34.0672 37.1798 34.1258 37.1005 34.243 36.9971C34.3671 36.8937 34.4809 36.8419 34.5843 36.8419C34.7567 36.8419 34.8429 37.004 34.8429 37.328C34.8429 37.9141 34.7774 38.383 34.6464 38.7346C34.5223 39.0931 34.2017 39.4137 33.6845 39.6964C33.1743 39.986 32.3676 40.2101 31.2644 40.3687L31.0576 39.1793ZM34.5223 36.7902H35.8461L35.9495 36.8937V37.9175L35.8461 38.021H34.5223V36.7902ZM35.7445 36.7902H36.0651C36.4099 36.7902 36.6926 36.7661 36.9132 36.7178C37.1407 36.6696 37.2993 36.6213 37.389 36.573L37.2959 33.884L38.2784 33.8323V35.5492C38.2784 36.2317 38.1715 36.7558 37.9578 37.1212C37.7441 37.4797 37.4579 37.721 37.0994 37.8452C36.7408 37.9624 36.2892 38.021 35.7445 38.021V36.7902ZM39.5712 38.021C39.2196 38.021 38.9196 38.0037 38.6714 37.9693C38.4301 37.9348 38.1991 37.821 37.9785 37.628C37.7578 37.428 37.6475 37.1108 37.6475 36.6765V34.1426H38.2784V35.9318C38.2784 36.2766 38.3853 36.5075 38.599 36.6248C38.8128 36.7351 39.1368 36.7902 39.5712 36.7902L39.6746 36.8937V37.9175L39.5712 38.021ZM37.6475 38.8587V39.9446H36.3858V38.8587H37.6475ZM38.9093 38.8587V39.9446H37.6475V38.8587H38.9093ZM39.469 36.7902C39.7379 36.7902 40.0447 36.773 40.3895 36.7385C40.7342 36.704 40.9755 36.6489 41.1134 36.573L40.9997 33.6979L42.0235 33.6462V36.1594C42.0235 36.8419 41.8029 37.3246 41.3616 37.6073C40.9273 37.8831 40.2964 38.021 39.469 38.021V36.7902ZM40.9169 31.5777V32.6636H39.6552V31.5777H40.9169ZM42.1787 31.5777V32.6636H40.9169V31.5777H42.1787ZM46.2809 38.2692C46.2809 37.297 46.2567 36.6006 46.2085 36.18C46.1602 35.7594 46.0154 35.4319 45.7741 35.1975C45.5328 34.9562 45.1294 34.8355 44.564 34.8355H44.2228L44.0469 36.8006C44.1848 36.8282 44.4985 36.8419 44.9881 36.8419C45.5535 36.8351 46.0292 36.8178 46.4153 36.7902C46.5119 36.7902 46.5843 36.7902 46.6325 36.7902C46.6808 36.7833 46.7153 36.7799 46.7359 36.7799V37.9279C46.6946 37.9279 46.536 37.9417 46.2602 37.9693C45.6259 38.0382 45.1225 38.0727 44.7502 38.0727C43.7573 38.0727 43.2609 37.6762 43.2609 36.8833C43.2609 36.7799 43.2644 36.7006 43.2713 36.6454L43.6022 33.6462H44.533C45.2294 33.6462 45.7603 33.7944 46.1257 34.0909C46.4912 34.3805 46.7359 34.7873 46.86 35.3113C46.9911 35.8284 47.0566 36.5006 47.0566 37.328L46.2809 38.2692ZM43.2713 39.1793C44.0504 39.0966 44.6847 38.969 45.1742 38.7966C45.6638 38.6312 46.0327 38.445 46.2809 38.2382V37.235C46.2809 37.1798 46.3395 37.1005 46.4567 36.9971C46.5808 36.8937 46.6946 36.8419 46.798 36.8419C46.9704 36.8419 47.0566 37.004 47.0566 37.328C47.0566 37.9141 46.9911 38.383 46.86 38.7346C46.7359 39.0931 46.4153 39.4137 45.8982 39.6964C45.388 39.986 44.5813 40.2101 43.4781 40.3687L43.2713 39.1793ZM46.7359 36.7902H48.0598L48.1632 36.8937V37.9175L48.0598 38.021H46.7359V36.7902ZM47.9582 36.7902C48.2271 36.7902 48.5339 36.773 48.8787 36.7385C49.2234 36.704 49.4647 36.6489 49.6026 36.573L49.4889 33.6979L50.5128 33.6462V36.1594C50.5128 36.8419 50.2921 37.3246 49.8508 37.6073C49.4165 37.8831 48.7856 38.021 47.9582 38.021V36.7902ZM49.2096 38.8587V39.9446H47.9479V38.8587H49.2096ZM50.4714 38.8587V39.9446H49.2096V38.8587H50.4714Z" fill="white"/>
<g clip-path="url(#clip0_221_68)">
<path d="M30.009 6.30204L27.4234 11.4732V11.9903H44.4883V11.4732L42.4198 6.30204H30.009Z" fill="#20223B"/>
<path d="M37.5972 11.5187L34.8122 9.926C34.6916 9.85774 34.5847 9.9442 34.5847 10.083V13.1911C34.5847 13.3276 34.6939 13.4186 34.8122 13.3504L37.5767 11.8327C37.6058 11.819 37.6307 11.7978 37.6488 11.7713C37.6668 11.7447 37.6775 11.7138 37.6796 11.6818C37.6817 11.6497 37.6751 11.6177 37.6606 11.589C37.6462 11.5603 37.6242 11.5361 37.5972 11.5187ZM37.5972 11.5187L34.8122 9.926C34.6916 9.85774 34.5847 9.9442 34.5847 10.083V13.1911C34.5847 13.3276 34.6939 13.4186 34.8122 13.3504L37.5767 11.8327C37.6058 11.819 37.6307 11.7978 37.6488 11.7713C37.6668 11.7447 37.6775 11.7138 37.6796 11.6818C37.6817 11.6497 37.6751 11.6177 37.6606 11.589C37.6462 11.5603 37.6242 11.5361 37.5972 11.5187ZM37.5972 11.5187L34.8122 9.926C34.6916 9.85774 34.5847 9.9442 34.5847 10.083V13.1911C34.5847 13.3276 34.6939 13.4186 34.8122 13.3504L37.5767 11.8327C37.6058 11.819 37.6307 11.7978 37.6488 11.7713C37.6668 11.7447 37.6775 11.7138 37.6796 11.6818C37.6817 11.6497 37.6751 11.6177 37.6606 11.589C37.6462 11.5603 37.6242 11.5361 37.5972 11.5187ZM37.5972 11.5187L34.8122 9.926C34.6916 9.85774 34.5847 9.9442 34.5847 10.083V13.1911C34.5847 13.3276 34.6939 13.4186 34.8122 13.3504L37.5767 11.8327C37.6058 11.819 37.6307 11.7978 37.6488 11.7713C37.6668 11.7447 37.6775 11.7138 37.6796 11.6818C37.6817 11.6497 37.6751 11.6177 37.6606 11.589C37.6462 11.5603 37.6242 11.5361 37.5972 11.5187ZM37.5972 11.5187L34.8122 9.926C34.6916 9.85774 34.5847 9.9442 34.5847 10.083V13.1911C34.5847 13.3276 34.6939 13.4186 34.8122 13.3504L37.5767 11.8327C37.6058 11.819 37.6307 11.7978 37.6488 11.7713C37.6668 11.7447 37.6775 11.7138 37.6796 11.6818C37.6817 11.6497 37.6751 11.6177 37.6606 11.589C37.6462 11.5603 37.6242 11.5361 37.5972 11.5187ZM37.5972 11.5187L34.8122 9.926C34.6916 9.85774 34.5847 9.9442 34.5847 10.083V13.1911C34.5847 13.3276 34.6939 13.4186 34.8122 13.3504L37.5767 11.8327C37.6058 11.819 37.6307 11.7978 37.6488 11.7713C37.6668 11.7447 37.6775 11.7138 37.6796 11.6818C37.6817 11.6497 37.6751 11.6177 37.6606 11.589C37.6462 11.5603 37.6242 11.5361 37.5972 11.5187ZM37.5972 11.5187L34.8122 9.926C34.6916 9.85774 34.5847 9.9442 34.5847 10.083V13.1911C34.5847 13.3276 34.6939 13.4186 34.8122 13.3504L37.5767 11.8327C37.6058 11.819 37.6307 11.7978 37.6488 11.7713C37.6668 11.7447 37.6775 11.7138 37.6796 11.6818C37.6817 11.6497 37.6751 11.6177 37.6606 11.589C37.6462 11.5603 37.6242 11.5361 37.5972 11.5187ZM37.5972 11.5187L34.8122 9.926C34.6916 9.85774 34.5847 9.9442 34.5847 10.083V13.1911C34.5847 13.3276 34.6939 13.4186 34.8122 13.3504L37.5767 11.8327C37.6058 11.819 37.6307 11.7978 37.6488 11.7713C37.6668 11.7447 37.6775 11.7138 37.6796 11.6818C37.6817 11.6497 37.6751 11.6177 37.6606 11.589C37.6462 11.5603 37.6242 11.5361 37.5972 11.5187ZM37.5972 11.5187L34.8122 9.926C34.6916 9.85774 34.5847 9.9442 34.5847 10.083V13.1911C34.5847 13.3276 34.6939 13.4186 34.8122 13.3504L37.5767 11.8327C37.6058 11.819 37.6307 11.7978 37.6488 11.7713C37.6668 11.7447 37.6775 11.7138 37.6796 11.6818C37.6817 11.6497 37.6751 11.6177 37.6606 11.589C37.6462 11.5603 37.6242 11.5361 37.5972 11.5187ZM37.5972 11.5187L34.8122 9.926C34.6916 9.85774 34.5847 9.9442 34.5847 10.083V13.1911C34.5847 13.3276 34.6939 13.4186 34.8122 13.3504L37.5767 11.8327C37.6058 11.819 37.6307 11.7978 37.6488 11.7713C37.6668 11.7447 37.6775 11.7138 37.6796 11.6818C37.6817 11.6497 37.6751 11.6177 37.6606 11.589C37.6462 11.5603 37.6242 11.5361 37.5972 11.5187ZM37.5972 11.5187L34.8122 9.926C34.6916 9.85774 34.5847 9.9442 34.5847 10.083V13.1911C34.5847 13.3276 34.6939 13.4186 34.8122 13.3504L37.5767 11.8327C37.6058 11.819 37.6307 11.7978 37.6488 11.7713C37.6668 11.7447 37.6775 11.7138 37.6796 11.6818C37.6817 11.6497 37.6751 11.6177 37.6606 11.589C37.6462 11.5603 37.6242 11.5361 37.5972 11.5187ZM37.5972 11.5187L34.8122 9.926C34.6916 9.85774 34.5847 9.9442 34.5847 10.083V13.1911C34.5847 13.3276 34.6939 13.4186 34.8122 13.3504L37.5767 11.8327C37.6058 11.819 37.6307 11.7978 37.6488 11.7713C37.6668 11.7447 37.6775 11.7138 37.6796 11.6818C37.6817 11.6497 37.6751 11.6177 37.6606 11.589C37.6462 11.5603 37.6242 11.5361 37.5972 11.5187ZM37.5972 11.5187L34.8122 9.926C34.6916 9.85774 34.5847 9.9442 34.5847 10.083V13.1911C34.5847 13.3276 34.6939 13.4186 34.8122 13.3504L37.5767 11.8327C37.6058 11.819 37.6307 11.7978 37.6488 11.7713C37.6668 11.7447 37.6775 11.7138 37.6796 11.6818C37.6817 11.6497 37.6751 11.6177 37.6606 11.589C37.6462 11.5603 37.6242 11.5361 37.5972 11.5187ZM37.5972 11.5187L34.8122 9.926C34.6916 9.85774 34.5847 9.9442 34.5847 10.083V13.1911C34.5847 13.3276 34.6939 13.4186 34.8122 13.3504L37.5767 11.8327C37.6058 11.819 37.6307 11.7978 37.6488 11.7713C37.6668 11.7447 37.6775 11.7138 37.6796 11.6818C37.6817 11.6497 37.6751 11.6177 37.6606 11.589C37.6462 11.5603 37.6242 11.5361 37.5972 11.5187ZM37.5972 11.5187L34.8122 9.926C34.6916 9.85774 34.5847 9.9442 34.5847 10.083V13.1911C34.5847 13.3276 34.6939 13.4186 34.8122 13.3504L37.5767 11.8327C37.6058 11.819 37.6307 11.7978 37.6488 11.7713C37.6668 11.7447 37.6775 11.7138 37.6796 11.6818C37.6817 11.6497 37.6751 11.6177 37.6606 11.589C37.6462 11.5603 37.6242 11.5361 37.5972 11.5187ZM37.5972 11.5187L34.8122 9.926C34.6916 9.85774 34.5847 9.9442 34.5847 10.083V13.1911C34.5847 13.3276 34.6939 13.4186 34.8122 13.3504L37.5767 11.8327C37.6058 11.819 37.6307 11.7978 37.6488 11.7713C37.6668 11.7447 37.6775 11.7138 37.6796 11.6818C37.6817 11.6497 37.6751 11.6177 37.6606 11.589C37.6462 11.5603 37.6242 11.5361 37.5972 11.5187ZM37.5972 11.5187L34.8122 9.926C34.6916 9.85774 34.5847 9.9442 34.5847 10.083V13.1911C34.5847 13.3276 34.6939 13.4186 34.8122 13.3504L37.5767 11.8327C37.6058 11.819 37.6307 11.7978 37.6488 11.7713C37.6668 11.7447 37.6775 11.7138 37.6796 11.6818C37.6817 11.6497 37.6751 11.6177 37.6606 11.589C37.6462 11.5603 37.6242 11.5361 37.5972 11.5187ZM37.5972 11.5187L34.8122 9.926C34.6916 9.85774 34.5847 9.9442 34.5847 10.083V13.1911C34.5847 13.3276 34.6939 13.4186 34.8122 13.3504L37.5767 11.8327C37.6058 11.819 37.6307 11.7978 37.6488 11.7713C37.6668 11.7447 37.6775 11.7138 37.6796 11.6818C37.6817 11.6497 37.6751 11.6177 37.6606 11.589C37.6462 11.5603 37.6242 11.5361 37.5972 11.5187ZM37.5972 11.5187L34.8122 9.926C34.6916 9.85774 34.5847 9.9442 34.5847 10.083V13.1911C34.5847 13.3276 34.6939 13.4186 34.8122 13.3504L37.5767 11.8327C37.6058 11.819 37.6307 11.7978 37.6488 11.7713C37.6668 11.7447 37.6775 11.7138 37.6796 11.6818C37.6817 11.6497 37.6751 11.6177 37.6606 11.589C37.6462 11.5603 37.6242 11.5361 37.5972 11.5187ZM37.5972 11.5187L34.8122 9.926C34.6916 9.85774 34.5847 9.9442 34.5847 10.083V13.1911C34.5847 13.3276 34.6939 13.4186 34.8122 13.3504L37.5767 11.8327C37.6058 11.819 37.6307 11.7978 37.6488 11.7713C37.6668 11.7447 37.6775 11.7138 37.6796 11.6818C37.6817 11.6497 37.6751 11.6177 37.6606 11.589C37.6462 11.5603 37.6242 11.5361 37.5972 11.5187ZM35.7155 1.21381C33.6567 1.21381 31.6441 1.82432 29.9323 2.96814C28.2204 4.11196 26.8862 5.73771 26.0983 7.63981C25.3104 9.54191 25.1043 11.6349 25.506 13.6542C25.9076 15.6735 26.899 17.5283 28.3548 18.9841C29.8106 20.4399 31.6654 21.4313 33.6847 21.8329C35.704 22.2346 37.797 22.0285 39.6991 21.2406C41.6012 20.4527 43.2269 19.1185 44.3708 17.4066C45.5146 15.6948 46.1251 13.6822 46.1251 11.6234C46.1221 8.86352 45.0244 6.21755 43.0729 4.26603C41.1213 2.31451 38.4754 1.21683 35.7155 1.21381ZM41.9476 13.2935C41.9476 14.0021 41.6662 14.6818 41.1654 15.1831C40.6645 15.6844 39.985 15.9664 39.2764 15.967H32.3412C31.6326 15.9664 30.9531 15.6844 30.4522 15.1831C29.9514 14.6818 29.67 14.0021 29.67 13.2935V10.0443C29.6712 9.33665 29.9532 8.65839 30.454 8.15842C30.9548 7.65845 31.6336 7.37764 32.3412 7.37765H39.2764C39.984 7.37764 40.6628 7.65845 41.1636 8.15842C41.6644 8.65839 41.9464 9.33665 41.9476 10.0443V13.2935ZM37.5972 11.5187L34.8122 9.926C34.6916 9.85774 34.5847 9.9442 34.5847 10.083V13.1911C34.5847 13.3276 34.6939 13.4186 34.8122 13.3504L37.5767 11.8327C37.6058 11.819 37.6307 11.7978 37.6488 11.7713C37.6668 11.7447 37.6775 11.7138 37.6796 11.6818C37.6817 11.6497 37.6751 11.6177 37.6606 11.589C37.6462 11.5603 37.6242 11.5361 37.5972 11.5187ZM37.5972 11.5187L34.8122 9.926C34.6916 9.85774 34.5847 9.9442 34.5847 10.083V13.1911C34.5847 13.3276 34.6939 13.4186 34.8122 13.3504L37.5767 11.8327C37.6058 11.819 37.6307 11.7978 37.6488 11.7713C37.6668 11.7447 37.6775 11.7138 37.6796 11.6818C37.6817 11.6497 37.6751 11.6177 37.6606 11.589C37.6462 11.5603 37.6242 11.5361 37.5972 11.5187ZM37.5972 11.5187L34.8122 9.926C34.6916 9.85774 34.5847 9.9442 34.5847 10.083V13.1911C34.5847 13.3276 34.6939 13.4186 34.8122 13.3504L37.5767 11.8327C37.6058 11.819 37.6307 11.7978 37.6488 11.7713C37.6668 11.7447 37.6775 11.7138 37.6796 11.6818C37.6817 11.6497 37.6751 11.6177 37.6606 11.589C37.6462 11.5603 37.6242 11.5361 37.5972 11.5187ZM37.5972 11.5187L34.8122 9.926C34.6916 9.85774 34.5847 9.9442 34.5847 10.083V13.1911C34.5847 13.3276 34.6939 13.4186 34.8122 13.3504L37.5767 11.8327C37.6058 11.819 37.6307 11.7978 37.6488 11.7713C37.6668 11.7447 37.6775 11.7138 37.6796 11.6818C37.6817 11.6497 37.6751 11.6177 37.6606 11.589C37.6462 11.5603 37.6242 11.5361 37.5972 11.5187ZM37.5972 11.5187L34.8122 9.926C34.6916 9.85774 34.5847 9.9442 34.5847 10.083V13.1911C34.5847 13.3276 34.6939 13.4186 34.8122 13.3504L37.5767 11.8327C37.6058 11.819 37.6307 11.7978 37.6488 11.7713C37.6668 11.7447 37.6775 11.7138 37.6796 11.6818C37.6817 11.6497 37.6751 11.6177 37.6606 11.589C37.6462 11.5603 37.6242 11.5361 37.5972 11.5187ZM37.5972 11.5187L34.8122 9.926C34.6916 9.85774 34.5847 9.9442 34.5847 10.083V13.1911C34.5847 13.3276 34.6939 13.4186 34.8122 13.3504L37.5767 11.8327C37.6058 11.819 37.6307 11.7978 37.6488 11.7713C37.6668 11.7447 37.6775 11.7138 37.6796 11.6818C37.6817 11.6497 37.6751 11.6177 37.6606 11.589C37.6462 11.5603 37.6242 11.5361 37.5972 11.5187ZM37.5972 11.5187L34.8122 9.926C34.6916 9.85774 34.5847 9.9442 34.5847 10.083V13.1911C34.5847 13.3276 34.6939 13.4186 34.8122 13.3504L37.5767 11.8327C37.6058 11.819 37.6307 11.7978 37.6488 11.7713C37.6668 11.7447 37.6775 11.7138 37.6796 11.6818C37.6817 11.6497 37.6751 11.6177 37.6606 11.589C37.6462 11.5603 37.6242 11.5361 37.5972 11.5187ZM37.5972 11.5187L34.8122 9.926C34.6916 9.85774 34.5847 9.9442 34.5847 10.083V13.1911C34.5847 13.3276 34.6939 13.4186 34.8122 13.3504L37.5767 11.8327C37.6058 11.819 37.6307 11.7978 37.6488 11.7713C37.6668 11.7447 37.6775 11.7138 37.6796 11.6818C37.6817 11.6497 37.6751 11.6177 37.6606 11.589C37.6462 11.5603 37.6242 11.5361 37.5972 11.5187ZM37.5972 11.5187L34.8122 9.926C34.6916 9.85774 34.5847 9.9442 34.5847 10.083V13.1911C34.5847 13.3276 34.6939 13.4186 34.8122 13.3504L37.5767 11.8327C37.6058 11.819 37.6307 11.7978 37.6488 11.7713C37.6668 11.7447 37.6775 11.7138 37.6796 11.6818C37.6817 11.6497 37.6751 11.6177 37.6606 11.589C37.6462 11.5603 37.6242 11.5361 37.5972 11.5187ZM37.5972 11.5187L34.8122 9.926C34.6916 9.85774 34.5847 9.9442 34.5847 10.083V13.1911C34.5847 13.3276 34.6939 13.4186 34.8122 13.3504L37.5767 11.8327C37.6058 11.819 37.6307 11.7978 37.6488 11.7713C37.6668 11.7447 37.6775 11.7138 37.6796 11.6818C37.6817 11.6497 37.6751 11.6177 37.6606 11.589C37.6462 11.5603 37.6242 11.5361 37.5972 11.5187ZM37.5972 11.5187L34.8122 9.926C34.6916 9.85774 34.5847 9.9442 34.5847 10.083V13.1911C34.5847 13.3276 34.6939 13.4186 34.8122 13.3504L37.5767 11.8327C37.6058 11.819 37.6307 11.7978 37.6488 11.7713C37.6668 11.7447 37.6775 11.7138 37.6796 11.6818C37.6817 11.6497 37.6751 11.6177 37.6606 11.589C37.6462 11.5603 37.6242 11.5361 37.5972 11.5187ZM37.5972 11.5187L34.8122 9.926C34.6916 9.85774 34.5847 9.9442 34.5847 10.083V13.1911C34.5847 13.3276 34.6939 13.4186 34.8122 13.3504L37.5767 11.8327C37.6058 11.819 37.6307 11.7978 37.6488 11.7713C37.6668 11.7447 37.6775 11.7138 37.6796 11.6818C37.6817 11.6497 37.6751 11.6177 37.6606 11.589C37.6462 11.5603 37.6242 11.5361 37.5972 11.5187ZM37.5972 11.5187L34.8122 9.926C34.6916 9.85774 34.5847 9.9442 34.5847 10.083V13.1911C34.5847 13.3276 34.6939 13.4186 34.8122 13.3504L37.5767 11.8327C37.6058 11.819 37.6307 11.7978 37.6488 11.7713C37.6668 11.7447 37.6775 11.7138 37.6796 11.6818C37.6817 11.6497 37.6751 11.6177 37.6606 11.589C37.6462 11.5603 37.6242 11.5361 37.5972 11.5187ZM37.5972 11.5187L34.8122 9.926C34.6916 9.85774 34.5847 9.9442 34.5847 10.083V13.1911C34.5847 13.3276 34.6939 13.4186 34.8122 13.3504L37.5767 11.8327C37.6058 11.819 37.6307 11.7978 37.6488 11.7713C37.6668 11.7447 37.6775 11.7138 37.6796 11.6818C37.6817 11.6497 37.6751 11.6177 37.6606 11.589C37.6462 11.5603 37.6242 11.5361 37.5972 11.5187ZM37.5972 11.5187L34.8122 9.926C34.6916 9.85774 34.5847 9.9442 34.5847 10.083V13.1911C34.5847 13.3276 34.6939 13.4186 34.8122 13.3504L37.5767 11.8327C37.6058 11.819 37.6307 11.7978 37.6488 11.7713C37.6668 11.7447 37.6775 11.7138 37.6796 11.6818C37.6817 11.6497 37.6751 11.6177 37.6606 11.589C37.6462 11.5603 37.6242 11.5361 37.5972 11.5187ZM37.5972 11.5187L34.8122 9.926C34.6916 9.85774 34.5847 9.9442 34.5847 10.083V13.1911C34.5847 13.3276 34.6939 13.4186 34.8122 13.3504L37.5767 11.8327C37.6058 11.819 37.6307 11.7978 37.6488 11.7713C37.6668 11.7447 37.6775 11.7138 37.6796 11.6818C37.6817 11.6497 37.6751 11.6177 37.6606 11.589C37.6462 11.5603 37.6242 11.5361 37.5972 11.5187ZM37.5972 11.5187L34.8122 9.926C34.6916 9.85774 34.5847 9.9442 34.5847 10.083V13.1911C34.5847 13.3276 34.6939 13.4186 34.8122 13.3504L37.5767 11.8327C37.6058 11.819 37.6307 11.7978 37.6488 11.7713C37.6668 11.7447 37.6775 11.7138 37.6796 11.6818C37.6817 11.6497 37.6751 11.6177 37.6606 11.589C37.6462 11.5603 37.6242 11.5361 37.5972 11.5187ZM37.5972 11.5187L34.8122 9.926C34.6916 9.85774 34.5847 9.9442 34.5847 10.083V13.1911C34.5847 13.3276 34.6939 13.4186 34.8122 13.3504L37.5767 11.8327C37.6058 11.819 37.6307 11.7978 37.6488 11.7713C37.6668 11.7447 37.6775 11.7138 37.6796 11.6818C37.6817 11.6497 37.6751 11.6177 37.6606 11.589C37.6462 11.5603 37.6242 11.5361 37.5972 11.5187ZM37.5972 11.5187L34.8122 9.926C34.6916 9.85774 34.5847 9.9442 34.5847 10.083V13.1911C34.5847 13.3276 34.6939 13.4186 34.8122 13.3504L37.5767 11.8327C37.6058 11.819 37.6307 11.7978 37.6488 11.7713C37.6668 11.7447 37.6775 11.7138 37.6796 11.6818C37.6817 11.6497 37.6751 11.6177 37.6606 11.589C37.6462 11.5603 37.6242 11.5361 37.5972 11.5187Z" fill="url(#paint0_linear_221_68)"/>
</g>
<defs>
<linearGradient id="paint0_linear_221_68" x1="35.7155" y1="1.21381" x2="35.7155" y2="22.033" gradientUnits="userSpaceOnUse">
<stop stop-color="#EBCD84"/>
<stop offset="1" stop-color="#C4A263"/>
</linearGradient>
<clipPath id="clip0_221_68">
<rect width="22.7532" height="22.7532" fill="white" transform="translate(24.3207 0.096632)"/>
</clipPath>
</defs>
</svg>
